{
  "accessors": [
    {
      "bufferView": 0,
      "componentType": 5125,
      "count": 11061,
      "type": "SCALAR"
    },
    {
      "bufferView": 1,
      "componentType": 5126,
      "count": 3651,
      "max": [
        0.791719496250153,
        0.549266576766968,
        1.00000011920929
      ],
      "min": [
        -0.791719496250153,
        -0.549266636371613,
        -1.0
      ],
      "type": "VEC3"
    },
    {
      "bufferView": 2,
      "componentType": 5126,
      "count": 3651,
      "type": "VEC3"
    },
    {
      "bufferView": 3,
      "componentType": 5126,
      "count": 3651,
      "type": "VEC2"
    }
  ],
  "asset": {
    "generator": "Substance Painter 2018.1.0",
    "version": "2.0"
  },
  "bufferViews": [
    {
      "buffer": 0,
      "byteLength": 44244,
      "target": 34963
    },
    {
      "buffer": 0,
      "byteLength": 43812,
      "byteOffset": 44244,
      "target": 34962
    },
    {
      "buffer": 0,
      "byteLength": 43812,
      "byteOffset": 88056,
      "target": 34962
    },
    {
      "buffer": 0,
      "byteLength": 29208,
      "byteOffset": 131868,
      "target": 34962
    }
  ],
  "buffers": [
    {
      "byteLength": 161076,
      "uri": "cannon_legs_separate.bin"
    }
  ],
  "images": [
    {
      "uri": "cannon_2_merged_uvs_diff.png"
    },
    {
      "uri": "cannon_2_merged_uvs_orm.png"
    },
    {
      "uri": "cannon_2_merged_uvs_ddn.png"
    }
  ],
  "materials": [
    {
      "alphaMode": "OPAQUE",
      "name": "DefaultMaterial",
      "normalTexture": {
        "index": 2
      },
      "occlusionTexture": {
        "index": 1
      },
      "pbrMetallicRoughness": {
        "baseColorTexture": {
          "index": 0
        },
        "metallicRoughnessTexture": {
          "index": 1
        }
      }
    }
  ],
  "meshes": [
    {
      "name": "cannon_main_legs",
      "primitives": [
        {
          "attributes": {
            "NORMAL": 2,
            "POSITION": 1,
            "TEXCOORD_0": 3
          },
          "indices": 0,
          "material": 0,
          "mode": 4
        }
      ]
    }
  ],
  "nodes": [
    {
      "children": [
        1
      ],
      "name": "root",
      "scale": [
        610.696533203125,
        610.696533203125,
        610.696533203125
      ],
      "translation": [
        0.0,
        334.692749023438,
        -40.6309814453125
      ]
    },
    {
      "children": [
        2
      ],
      "name": "cannon_main_legs"
    },
    {
      "mesh": 0,
      "name": "cannon_main_legs"
    }
  ],
  "samplers": [
    {
      "magFilter": 9729,
      "minFilter": 9985,
      "wrapS": 10497,
      "wrapT": 10497
    }
  ],
  "scene": 0,
  "scenes": [
    {
      "name": "Scene",
      "nodes": [
        0
      ]
    }
  ],
  "textures": [
    {
      "sampler": 0,
      "source": 0
    },
    {
      "sampler": 0,
      "source": 1
    },
    {
      "sampler": 0,
      "source": 2
    }
  ]
}