{
  "accessors": [
    {
      "bufferView": 0,
      "componentType": 5125,
      "count": 5508,
      "type": "SCALAR"
    },
    {
      "bufferView": 1,
      "componentType": 5126,
      "count": 2033,
      "max": [
        0.47153827548027,
        0.654646694660187,
        0.888155102729797
      ],
      "min": [
        -0.47153827548027,
        -0.653515994548798,
        -1.0
      ],
      "type": "VEC3"
    },
    {
      "bufferView": 2,
      "componentType": 5126,
      "count": 2033,
      "type": "VEC3"
    },
    {
      "bufferView": 3,
      "componentType": 5126,
      "count": 2033,
      "type": "VEC2"
    },
    {
      "bufferView": 4,
      "componentType": 5125,
      "count": 11061,
      "type": "SCALAR"
    },
    {
      "bufferView": 5,
      "componentType": 5126,
      "count": 3651,
      "max": [
        0.736372709274292,
        0.367091238498688,
        0.99999988079071
      ],
      "min": [
        -0.736372709274292,
        -0.654646754264832,
        -0.860186159610748
      ],
      "type": "VEC3"
    },
    {
      "bufferView": 6,
      "componentType": 5126,
      "count": 3651,
      "type": "VEC3"
    },
    {
      "bufferView": 7,
      "componentType": 5126,
      "count": 3651,
      "type": "VEC2"
    }
  ],
  "asset": {
    "generator": "Substance Painter 2018.1.0",
    "version": "2.0"
  },
  "bufferViews": [
    {
      "buffer": 0,
      "byteLength": 22032,
      "target": 34963
    },
    {
      "buffer": 0,
      "byteLength": 24396,
      "byteOffset": 22032,
      "target": 34962
    },
    {
      "buffer": 0,
      "byteLength": 24396,
      "byteOffset": 46428,
      "target": 34962
    },
    {
      "buffer": 0,
      "byteLength": 16264,
      "byteOffset": 70824,
      "target": 34962
    },
    {
      "buffer": 0,
      "byteLength": 44244,
      "byteOffset": 87088,
      "target": 34963
    },
    {
      "buffer": 0,
      "byteLength": 43812,
      "byteOffset": 131332,
      "target": 34962
    },
    {
      "buffer": 0,
      "byteLength": 43812,
      "byteOffset": 175144,
      "target": 34962
    },
    {
      "buffer": 0,
      "byteLength": 29208,
      "byteOffset": 218956,
      "target": 34962
    }
  ],
  "buffers": [
    {
      "byteLength": 248164,
      "uri": "cannon_main.bin"
    }
  ],
  "images": [
    {
      "uri": "cannon_2_merged_uvs_diff.png"
    },
    {
      "uri": "cannon_2_merged_uvs_orm.png"
    },
    {
      "uri": "cannon_2_merged_uvs_ddn.png"
    }
  ],
  "materials": [
    {
      "alphaMode": "OPAQUE",
      "name": "DefaultMaterial",
      "normalTexture": {
        "index": 2
      },
      "occlusionTexture": {
        "index": 1
      },
      "pbrMetallicRoughness": {
        "baseColorTexture": {
          "index": 0
        },
        "metallicRoughnessTexture": {
          "index": 1
        }
      }
    }
  ],
  "meshes": [
    {
      "name": "cannon_main_head",
      "primitives": [
        {
          "attributes": {
            "NORMAL": 2,
            "POSITION": 1,
            "TEXCOORD_0": 3
          },
          "indices": 0,
          "material": 0,
          "mode": 4
        }
      ]
    },
    {
      "name": "cannon_main_legs",
      "primitives": [
        {
          "attributes": {
            "NORMAL": 6,
            "POSITION": 5,
            "TEXCOORD_0": 7
          },
          "indices": 4,
          "material": 0,
          "mode": 4
        }
      ]
    }
  ],
  "nodes": [
    {
      "children": [
        1,
        3
      ],
      "name": "root",
      "scale": [
        65.6597290039063,
        65.6597290039063,
        65.6597290039063
      ],
      "translation": [
        0.0,
        42.9096832275391,
        -8.65316009521484
      ]
    },
    {
      "children": [
        2
      ],
      "name": "cannon_main_head"
    },
    {
      "mesh": 0,
      "name": "cannon_main_head"
    },
    {
      "children": [
        4
      ],
      "name": "cannon_main_legs"
    },
    {
      "mesh": 1,
      "name": "cannon_main_legs"
    }
  ],
  "samplers": [
    {
      "magFilter": 9729,
      "minFilter": 9985,
      "wrapS": 10497,
      "wrapT": 10497
    }
  ],
  "scene": 0,
  "scenes": [
    {
      "name": "Scene",
      "nodes": [
        0
      ]
    }
  ],
  "textures": [
    {
      "sampler": 0,
      "source": 0
    },
    {
      "sampler": 0,
      "source": 1
    },
    {
      "sampler": 0,
      "source": 2
    }
  ]
}